<svg width="12" height="10" viewBox="0 0 12 10" fill="none" xmlns="http://www.w3.org/2000/svg">
<path d="M5.55067 9.78998C5.61778 9.72364 5.67103 9.64481 5.70736 9.55801C5.7437 9.47121 5.7624 9.37816 5.7624 9.28417C5.7624 9.19019 5.7437 9.09714 5.70736 9.01034C5.67103 8.92354 5.61778 8.84471 5.55067 8.77837L2.46188 5.71441L11.2801 5.71441C11.4711 5.71441 11.6542 5.63918 11.7892 5.50526C11.9242 5.37135 12 5.18972 12 5.00034C12 4.81095 11.9242 4.62933 11.7892 4.49541C11.6542 4.3615 11.4711 4.28627 11.2801 4.28627L2.46188 4.28627L5.55067 1.22111C5.68591 1.08696 5.76188 0.905023 5.76188 0.715311C5.76188 0.525598 5.68591 0.343656 5.55067 0.209509C5.41544 0.0753627 5.23202 -2.267e-07 5.04077 -2.20339e-07C4.84952 -2.13978e-07 4.66611 0.0753628 4.53087 0.20951L0.211726 4.49394C0.144616 4.56028 0.0913682 4.63911 0.0550355 4.72591C0.0187028 4.8127 2.14438e-07 4.90576 2.18546e-07 4.99974C2.22654e-07 5.09372 0.0187029 5.18678 0.0550356 5.27358C0.0913683 5.36038 0.144616 5.4392 0.211726 5.50554L4.53087 9.78998C4.59775 9.85655 4.67722 9.90937 4.76472 9.94541C4.85222 9.98145 4.94603 10 5.04077 10C5.13552 10 5.22933 9.98145 5.31683 9.94541C5.40433 9.90937 5.4838 9.85655 5.55067 9.78998Z" fill="white"/>
</svg>
