<svg width="10" height="10" viewBox="0 0 10 10" fill="none" xmlns="http://www.w3.org/2000/svg">
<g clip-path="url(#clip0_1032_173)">
<path d="M4.99893 9.99779C7.60694 9.99779 9.72115 7.88358 9.72115 5.27557C9.72115 2.66756 7.60694 0.553345 4.99893 0.553345C2.39091 0.553345 0.276703 2.66756 0.276703 5.27557C0.276703 7.88358 2.39091 9.99779 4.99893 9.99779Z" fill="#F4900C"/>
<path d="M4.99893 9.44444C7.60694 9.44444 9.72115 7.33023 9.72115 4.72222C9.72115 2.11421 7.60694 0 4.99893 0C2.39091 0 0.276703 2.11421 0.276703 4.72222C0.276703 7.33023 2.39091 9.44444 4.99893 9.44444Z" fill="#FFCC4D"/>
<path d="M5.00055 8.88459C7.14833 8.88459 8.88944 7.14347 8.88944 4.9957C8.88944 2.84793 7.14833 1.10681 5.00055 1.10681C2.85278 1.10681 1.11166 2.84793 1.11166 4.9957C1.11166 7.14347 2.85278 8.88459 5.00055 8.88459Z" fill="#FFE8B6"/>
<path d="M5.00055 8.61115C7.14833 8.61115 8.88944 6.87004 8.88944 4.72226C8.88944 2.57449 7.14833 0.833374 5.00055 0.833374C2.85278 0.833374 1.11166 2.57449 1.11166 4.72226C1.11166 6.87004 2.85278 8.61115 5.00055 8.61115Z" fill="#FFAC33"/>
<path d="M2.64975 3.01707C2.64975 2.86568 2.79836 2.80512 2.79836 2.80512L4.98669 1.77734L7.19586 2.80512C7.19586 2.80512 7.34808 2.83901 7.34808 3.01818V3.19623H2.64975V3.01707Z" fill="#FFE8B6"/>
<path d="M7.20206 3.56839C7.20206 3.40617 7.06178 3.27478 6.889 3.27478H3.09095C2.91789 3.27478 2.79734 3.40617 2.79734 3.56839C2.79734 3.67867 2.854 3.77367 2.94428 3.82395V4.00895H3.5315V3.862H4.11873V4.00895H4.70595V3.862H5.29317V4.00895H5.88039V3.862H6.46761V4.00895H7.05511V3.81645C7.14317 3.76422 7.20206 3.67284 7.20206 3.56839ZM7.64234 6.6695C7.64234 6.72792 7.61913 6.78395 7.57782 6.82526C7.53651 6.86657 7.48048 6.88978 7.42206 6.88978H2.57706C2.51864 6.88978 2.46261 6.86657 2.4213 6.82526C2.37999 6.78395 2.35678 6.72792 2.35678 6.6695C2.35678 6.61108 2.37999 6.55505 2.4213 6.51374C2.46261 6.47243 2.51864 6.44922 2.57706 6.44922H7.42234C7.54373 6.44922 7.64234 6.54784 7.64234 6.6695Z" fill="#F4900C"/>
<path d="M7.34936 3.38913C7.34936 3.4281 7.33388 3.46548 7.30632 3.49304C7.27877 3.52059 7.24139 3.53608 7.20242 3.53608H2.7977C2.76029 3.53378 2.72516 3.51729 2.69949 3.48999C2.67381 3.46268 2.65952 3.42661 2.65952 3.38913C2.65952 3.35165 2.67381 3.31558 2.69949 3.28828C2.72516 3.26097 2.76029 3.24449 2.7977 3.24219L7.20242 3.24302C7.22167 3.24295 7.24074 3.24667 7.25855 3.25398C7.27635 3.26128 7.29254 3.27203 7.30619 3.2856C7.31984 3.29917 7.33068 3.3153 7.33809 3.33307C7.3455 3.35083 7.34933 3.36988 7.34936 3.38913ZM3.3852 3.55969H6.61548V3.88913H3.3852V3.55969Z" fill="#F4900C"/>
<path d="M3.53184 5.78791C3.53184 5.95013 3.44406 6.08152 3.336 6.08152H3.14017C3.03211 6.08152 2.94434 5.95013 2.94434 5.78791V3.5618C2.94434 3.39958 3.03211 3.26819 3.14017 3.26819H3.336C3.44406 3.26819 3.53184 3.39958 3.53184 3.5618V5.78791ZM7.05572 5.78791C7.05572 5.95013 6.96822 6.08152 6.85989 6.08152H6.66406C6.556 6.08152 6.46822 5.95013 6.46822 5.78791V3.5618C6.46822 3.39958 6.55572 3.26819 6.66406 3.26819H6.85989C6.96795 3.26819 7.05572 3.39958 7.05572 3.5618V5.78791ZM4.70656 5.78791C4.70656 5.95013 4.61878 6.08152 4.51073 6.08152H4.31489C4.20684 6.08152 4.11906 5.95013 4.11906 5.78791V3.5618C4.11906 3.39958 4.20684 3.26819 4.31489 3.26819H4.51073C4.61878 3.26819 4.70656 3.39958 4.70656 3.5618V5.78791ZM5.881 5.78791C5.881 5.95013 5.79322 6.08152 5.68517 6.08152H5.48961C5.38156 6.08152 5.29378 5.95013 5.29378 5.78791V3.5618C5.29378 3.39958 5.38156 3.26819 5.48961 3.26819H5.68517C5.79322 3.26819 5.881 3.39958 5.881 3.5618V5.78791Z" fill="#FFD983"/>
<path d="M7.20257 5.93167C7.20257 6.0939 7.07119 6.22528 6.90896 6.22528H3.09146C3.01359 6.22528 2.93891 6.19435 2.88385 6.13929C2.82879 6.08422 2.79785 6.00954 2.79785 5.93167C2.79785 5.8538 2.82879 5.77912 2.88385 5.72406C2.93891 5.669 3.01359 5.63806 3.09146 5.63806H6.90896C7.07091 5.63806 7.20257 5.76945 7.20257 5.93167Z" fill="#FFCC4D"/>
<path d="M7.49549 6.22464C7.49549 6.38686 7.3641 6.51825 7.20188 6.51825H2.79688C2.71901 6.51825 2.64432 6.48732 2.58926 6.43226C2.5342 6.37719 2.50327 6.30251 2.50327 6.22464C2.50327 6.14677 2.5342 6.07209 2.58926 6.01703C2.64432 5.96196 2.71901 5.93103 2.79688 5.93103H7.2016C7.36382 5.93103 7.49549 6.06242 7.49549 6.22464Z" fill="#FFD983"/>
<path d="M7.64234 6.44428C7.64234 6.5027 7.61913 6.55873 7.57782 6.60004C7.53651 6.64135 7.48048 6.66455 7.42206 6.66455H2.57706C2.54813 6.66455 2.51949 6.65886 2.49276 6.64779C2.46604 6.63672 2.44175 6.62049 2.4213 6.60004C2.40084 6.57958 2.38462 6.5553 2.37355 6.52857C2.36248 6.50185 2.35678 6.4732 2.35678 6.44428C2.35678 6.41535 2.36248 6.38671 2.37355 6.35998C2.38462 6.33325 2.40084 6.30897 2.4213 6.28852C2.44175 6.26806 2.46604 6.25184 2.49276 6.24077C2.51949 6.2297 2.54813 6.224 2.57706 6.224H7.42234C7.54373 6.224 7.64234 6.32261 7.64234 6.44428Z" fill="#FFD983"/>
<path d="M7.20257 3.41214C7.20257 3.24992 7.0623 3.11853 6.88952 3.11853H3.09146C2.91841 3.11853 2.79785 3.24992 2.79785 3.41214C2.79785 3.52242 2.85452 3.61742 2.9448 3.6677V3.8527H3.53202V3.70575H4.11924V3.8527H4.70646V3.70575H5.29368V3.8527H5.88091V3.70575H6.46813V3.8527H7.05563V3.6602C7.14369 3.60797 7.20257 3.51659 7.20257 3.41214Z" fill="#FFCC4D"/>
<path d="M2.64975 3.18638C2.64975 3.03499 2.79836 2.97443 2.79836 2.97443L4.98669 1.94666L7.19586 2.97443C7.19586 2.97443 7.34808 3.00832 7.34808 3.18749V3.26832H2.64975V3.18638Z" fill="#FFD983"/>
<path d="M5.0008 2.31775C5.0008 2.31775 3.48552 3.03192 3.33441 3.09636C3.18302 3.16053 3.23358 3.26608 3.33469 3.26608H6.65969C6.8158 3.26608 6.77886 3.14692 6.65497 3.08247C6.53108 3.0183 5.0008 2.31775 5.0008 2.31775Z" fill="#FFAC33"/>
<path d="M7.34936 3.26547C7.34936 3.30445 7.33388 3.34182 7.30632 3.36938C7.27877 3.39694 7.24139 3.41242 7.20242 3.41242H2.7977C2.76029 3.41012 2.72516 3.39363 2.69949 3.36633C2.67381 3.33903 2.65952 3.30296 2.65952 3.26547C2.65952 3.22799 2.67381 3.19192 2.69949 3.16462C2.72516 3.13731 2.76029 3.12083 2.7977 3.11853L7.20242 3.11936C7.22167 3.11929 7.24074 3.12301 7.25855 3.13032C7.27635 3.13763 7.29254 3.14837 7.30619 3.16194C7.31984 3.17552 7.33068 3.19165 7.33809 3.20941C7.3455 3.22718 7.34933 3.24623 7.34936 3.26547Z" fill="#FFD983"/>
</g>
<defs>
<clipPath id="clip0_1032_173">
<rect width="10" height="10" fill="white"/>
</clipPath>
</defs>
</svg>
