<svg width="16" height="16" viewBox="0 0 16 16" fill="none" xmlns="http://www.w3.org/2000/svg">
<path d="M5.74175 3.59246C5.6645 3.66955 5.60321 3.76113 5.56139 3.86194C5.51957 3.96275 5.49805 4.07082 5.49805 4.17996C5.49805 4.2891 5.51957 4.39717 5.56139 4.49798C5.60321 4.59879 5.6645 4.69036 5.74175 4.76746L8.97508 8.00079L5.74175 11.2341C5.6646 11.3113 5.6034 11.4029 5.56165 11.5037C5.51989 11.6045 5.4984 11.7125 5.4984 11.8216C5.4984 11.9307 5.51989 12.0388 5.56165 12.1396C5.6034 12.2404 5.6646 12.332 5.74175 12.4091C5.8189 12.4863 5.91049 12.5475 6.0113 12.5892C6.1121 12.631 6.22014 12.6525 6.32925 12.6525C6.43836 12.6525 6.5464 12.631 6.6472 12.5892C6.74801 12.5475 6.8396 12.4863 6.91675 12.4091L10.7418 8.58412C10.819 8.50703 10.8803 8.41546 10.9221 8.31464C10.9639 8.21383 10.9855 8.10576 10.9855 7.99662C10.9855 7.88748 10.9639 7.77942 10.9221 7.6786C10.8803 7.57779 10.819 7.48622 10.7418 7.40912L6.91675 3.58412C6.60008 3.26746 6.06675 3.26746 5.74175 3.59246Z" fill="#01A74B"/>
</svg>
