<svg width="6" height="10" viewBox="0 0 6 10" fill="none" xmlns="http://www.w3.org/2000/svg">
<path d="M0.74175 0.592458C0.664497 0.669553 0.603208 0.761127 0.56139 0.861938C0.519572 0.962749 0.498047 1.07082 0.498047 1.17996C0.498047 1.2891 0.519572 1.39717 0.56139 1.49798C0.603208 1.59879 0.664497 1.69036 0.74175 1.76746L3.97508 5.00079L0.74175 8.23412C0.664599 8.31128 0.603399 8.40287 0.561645 8.50367C0.519891 8.60448 0.4984 8.71251 0.4984 8.82162C0.4984 8.93073 0.519891 9.03877 0.561645 9.13958C0.603399 9.24038 0.664599 9.33197 0.74175 9.40913C0.818902 9.48628 0.910494 9.54748 1.0113 9.58923C1.1121 9.63098 1.22014 9.65247 1.32925 9.65247C1.43836 9.65247 1.5464 9.63098 1.6472 9.58923C1.74801 9.54748 1.8396 9.48628 1.91675 9.40913L5.74175 5.58412C5.819 5.50703 5.88029 5.41546 5.92211 5.31464C5.96393 5.21383 5.98545 5.10576 5.98545 4.99662C5.98545 4.88748 5.96393 4.77942 5.92211 4.6786C5.88029 4.57779 5.819 4.48622 5.74175 4.40912L1.91675 0.584125C1.60008 0.267458 1.06675 0.267458 0.74175 0.592458Z" fill="#0CF285"/>
</svg>
