<svg width="12" height="12" viewBox="0 0 12 12" fill="none" xmlns="http://www.w3.org/2000/svg">
<g clip-path="url(#clip0_1032_232)">
<path d="M3.99966 5.38079H3.70966C3.31391 5.36649 2.91945 5.43367 2.55075 5.57817C2.18204 5.72267 1.84697 5.9414 1.56633 6.22079L1.48633 6.31413V9.07413H2.84633V7.50746L3.02966 7.30079L3.11299 7.20413C3.54697 6.75829 4.08725 6.43022 4.68299 6.25079C4.38473 6.02384 4.14949 5.72434 3.99966 5.38079Z" fill="#EEEEEE"/>
<path d="M10.4468 6.20907C10.1661 5.92968 9.83105 5.71095 9.46235 5.56645C9.09365 5.42195 8.69919 5.35477 8.30344 5.36907C8.18206 5.36942 8.06079 5.37609 7.9401 5.38907C7.78747 5.71137 7.55866 5.99167 7.27344 6.20574C7.90943 6.38169 8.48556 6.72737 8.9401 7.20574L9.02344 7.29907L9.20344 7.50574V9.07574H10.5168V6.30241L10.4468 6.20907Z" fill="#EEEEEE"/>
<path d="M3.69996 4.72896H3.80329C3.75528 4.31671 3.82761 3.89937 4.01157 3.52732C4.19552 3.15528 4.48323 2.84442 4.83996 2.63229C4.71065 2.43474 4.53225 2.27416 4.32223 2.16627C4.11221 2.05839 3.87777 2.00689 3.64187 2.01683C3.40597 2.02678 3.1767 2.09781 2.9765 2.22298C2.7763 2.34816 2.61204 2.52318 2.49981 2.73091C2.38758 2.93864 2.33122 3.17195 2.33625 3.40801C2.34128 3.64406 2.40753 3.87477 2.52851 4.07753C2.64949 4.28028 2.82106 4.44815 3.02641 4.56468C3.23176 4.68121 3.46385 4.74241 3.69996 4.74229V4.72896Z" fill="#EEEEEE"/>
<path d="M8.14292 4.47807C8.14696 4.55468 8.14696 4.63145 8.14292 4.70807C8.20688 4.71821 8.27149 4.72378 8.33625 4.72473H8.39958C8.63466 4.7122 8.86248 4.63901 9.06086 4.51229C9.25925 4.38558 9.42145 4.20965 9.53167 4.00164C9.64188 3.79363 9.69636 3.56062 9.68979 3.32531C9.68323 3.09 9.61585 2.86039 9.4942 2.65885C9.37256 2.45731 9.20081 2.2907 8.99566 2.17524C8.79051 2.05978 8.55897 1.99941 8.32356 2C8.08816 2.0006 7.85692 2.06213 7.65235 2.17862C7.44779 2.29511 7.27688 2.46258 7.15625 2.66473C7.45794 2.86171 7.70602 3.1305 7.87823 3.44699C8.05044 3.76348 8.14139 4.11776 8.14292 4.47807Z" fill="#EEEEEE"/>
<path d="M5.9568 5.97219C6.7797 5.97219 7.4468 5.30509 7.4468 4.48219C7.4468 3.65928 6.7797 2.99219 5.9568 2.99219C5.13389 2.99219 4.4668 3.65928 4.4668 4.48219C4.4668 5.30509 5.13389 5.97219 5.9568 5.97219Z" fill="#EEEEEE"/>
<path d="M6.03634 6.76861C5.60102 6.75104 5.16665 6.82171 4.75935 6.97638C4.35206 7.13105 3.98026 7.36651 3.66634 7.66861L3.58301 7.76195V9.87195C3.58431 9.94068 3.59914 10.0085 3.62665 10.0715C3.65415 10.1345 3.69381 10.1914 3.74333 10.2391C3.79286 10.2868 3.85129 10.3242 3.91529 10.3493C3.9793 10.3744 4.04761 10.3866 4.11634 10.3853H7.94634C8.01507 10.3866 8.08339 10.3744 8.14739 10.3493C8.21139 10.3242 8.26982 10.2868 8.31935 10.2391C8.36888 10.1914 8.40853 10.1345 8.43604 10.0715C8.46355 10.0085 8.47837 9.94068 8.47967 9.87195V7.76861L8.39967 7.66861C8.08778 7.36559 7.71728 7.12945 7.3109 6.97469C6.90451 6.81993 6.47079 6.74981 6.03634 6.76861Z" fill="#EEEEEE"/>
</g>
<defs>
<clipPath id="clip0_1032_232">
<rect width="12" height="12" fill="white"/>
</clipPath>
</defs>
</svg>
