<svg width="16" height="16" viewBox="0 0 16 16" fill="none" xmlns="http://www.w3.org/2000/svg">
<g clip-path="url(#clip0_1039_271)">
<path d="M11.1111 1H4.88889C4.65314 1 4.42705 1.09783 4.26035 1.27197C4.09365 1.44611 4 1.6823 4 1.92857V13.0714C4 13.3177 4.09365 13.5539 4.26035 13.728C4.42705 13.9022 4.65314 14 4.88889 14H11.1111C11.3469 14 11.573 13.9022 11.7397 13.728C11.9063 13.5539 12 13.3177 12 13.0714V1.92857C12 1.6823 11.9063 1.44611 11.7397 1.27197C11.573 1.09783 11.3469 1 11.1111 1ZM8.44444 13.0714H7.55556V12.1429H8.44444V13.0714ZM4.88889 11.2143V1.92857H11.1111V11.2143H4.88889Z" fill="#D1D4D2"/>
</g>
<defs>
<clipPath id="clip0_1039_271">
<rect width="16" height="16" fill="white"/>
</clipPath>
</defs>
</svg>
