<svg width="79" height="24" viewBox="0 0 79 24" fill="none" xmlns="http://www.w3.org/2000/svg">
<path d="M10.1979 1.75004C10.6866 0.68368 11.7521 0 12.9251 0H74.4129C76.5764 0 78.0286 2.22039 77.1614 4.20246L69.2864 22.2025C68.8087 23.2944 67.7298 24 66.538 24H4.6751C2.48916 24 1.03712 21.7372 1.9479 19.75L10.1979 1.75004Z" fill="url(#paint0_linear_1032_121)"/>
<path d="M14.8608 16V7.27273H18.1335C18.804 7.27273 19.3665 7.39773 19.821 7.64773C20.2784 7.89773 20.6236 8.24148 20.8565 8.67898C21.0923 9.11364 21.2102 9.60795 21.2102 10.1619C21.2102 10.7216 21.0923 11.2187 20.8565 11.6534C20.6207 12.0881 20.2727 12.4304 19.8125 12.6804C19.3523 12.9276 18.7855 13.0511 18.1122 13.0511H15.9432V11.7514H17.8991C18.2912 11.7514 18.6122 11.6832 18.8622 11.5469C19.1122 11.4105 19.2969 11.223 19.4162 10.9844C19.5384 10.7457 19.5994 10.4716 19.5994 10.1619C19.5994 9.85227 19.5384 9.57955 19.4162 9.34375C19.2969 9.10795 19.1108 8.92472 18.858 8.79403C18.608 8.66051 18.2855 8.59375 17.8906 8.59375H16.4418V16H14.8608ZM22.5153 16V9.45455H24.011V10.5455H24.0792C24.1985 10.1676 24.4031 9.87642 24.6928 9.67188C24.9854 9.46449 25.3192 9.3608 25.6942 9.3608C25.7795 9.3608 25.8746 9.36506 25.9798 9.37358C26.0877 9.37926 26.1772 9.3892 26.2482 9.40341V10.8224C26.1829 10.7997 26.0792 10.7798 25.9371 10.7628C25.7979 10.7429 25.663 10.733 25.5323 10.733C25.2511 10.733 24.9982 10.794 24.7738 10.9162C24.5522 11.0355 24.3775 11.2017 24.2496 11.4148C24.1218 11.6278 24.0579 11.8736 24.0579 12.152V16H22.5153ZM29.9013 16.1278C29.245 16.1278 28.6783 15.9915 28.201 15.7188C27.7266 15.4432 27.3615 15.054 27.1058 14.5511C26.8501 14.0455 26.7223 13.4503 26.7223 12.7656C26.7223 12.0923 26.8501 11.5014 27.1058 10.9929C27.3643 10.4815 27.7251 10.0838 28.1882 9.79972C28.6513 9.51278 29.1953 9.36932 29.8203 9.36932C30.2237 9.36932 30.6044 9.43466 30.9624 9.56534C31.3232 9.69318 31.6413 9.89205 31.9169 10.1619C32.1953 10.4318 32.4141 10.7756 32.5732 11.1932C32.7322 11.608 32.8118 12.1023 32.8118 12.6761V13.1491H27.4467V12.1094H31.3331C31.3303 11.8139 31.2663 11.5511 31.1413 11.321C31.0163 11.0881 30.8416 10.9048 30.6172 10.7713C30.3956 10.6378 30.1371 10.571 29.8416 10.571C29.5263 10.571 29.2493 10.6477 29.0107 10.8011C28.772 10.9517 28.5859 11.1506 28.4524 11.3977C28.3217 11.642 28.255 11.9105 28.2521 12.2031V13.1108C28.2521 13.4915 28.3217 13.8182 28.4609 14.0909C28.6001 14.3608 28.7947 14.5682 29.0447 14.7131C29.2947 14.8551 29.5874 14.9261 29.9226 14.9261C30.147 14.9261 30.3501 14.8949 30.532 14.8324C30.7138 14.767 30.8714 14.6719 31.005 14.5469C31.1385 14.4219 31.2393 14.267 31.3075 14.0824L32.7479 14.2443C32.657 14.625 32.4837 14.9574 32.228 15.2415C31.9751 15.5227 31.6513 15.7415 31.2564 15.8977C30.8615 16.0511 30.4098 16.1278 29.9013 16.1278ZM34.1168 16V9.45455H35.5913V10.5668H35.668C35.8043 10.1918 36.0302 9.89915 36.3455 9.68892C36.6609 9.47585 37.0373 9.36932 37.4748 9.36932C37.918 9.36932 38.2915 9.47727 38.5955 9.69318C38.9023 9.90625 39.1183 10.1974 39.2433 10.5668H39.3114C39.4563 10.2031 39.7006 9.91335 40.0444 9.69744C40.391 9.47869 40.8015 9.36932 41.2759 9.36932C41.8782 9.36932 42.3697 9.55966 42.7504 9.94034C43.131 10.321 43.3214 10.8764 43.3214 11.6065V16H41.7745V11.8452C41.7745 11.4389 41.6665 11.142 41.4506 10.9545C41.2347 10.7642 40.9705 10.669 40.658 10.669C40.2859 10.669 39.9947 10.7855 39.7844 11.0185C39.5771 11.2486 39.4734 11.5483 39.4734 11.9176V16H37.9606V11.7812C37.9606 11.4432 37.8583 11.1733 37.6538 10.9716C37.4521 10.7699 37.1879 10.669 36.8612 10.669C36.6396 10.669 36.4379 10.7259 36.256 10.8395C36.0742 10.9503 35.9293 11.108 35.8214 11.3125C35.7134 11.5142 35.6594 11.75 35.6594 12.0199V16H34.1168ZM44.8864 16V9.45455H46.429V16H44.8864ZM45.6619 8.52557C45.4176 8.52557 45.2074 8.4446 45.0312 8.28267C44.8551 8.1179 44.767 7.92045 44.767 7.69034C44.767 7.45739 44.8551 7.25994 45.0312 7.09801C45.2074 6.93324 45.4176 6.85085 45.6619 6.85085C45.9091 6.85085 46.1193 6.93324 46.2926 7.09801C46.4688 7.25994 46.5568 7.45739 46.5568 7.69034C46.5568 7.92045 46.4688 8.1179 46.2926 8.28267C46.1193 8.4446 45.9091 8.52557 45.6619 8.52557ZM52.1871 13.2472V9.45455H53.7298V16H52.234V14.8366H52.1658C52.0181 15.2031 51.7752 15.5028 51.4371 15.7358C51.1019 15.9687 50.6886 16.0852 50.1971 16.0852C49.7681 16.0852 49.3888 15.9901 49.0593 15.7997C48.7326 15.6065 48.4769 15.3267 48.2923 14.9602C48.1076 14.5909 48.0153 14.1449 48.0153 13.6222V9.45455H49.5579V13.3835C49.5579 13.7983 49.6715 14.1278 49.8988 14.3722C50.1261 14.6165 50.4244 14.7386 50.7937 14.7386C51.021 14.7386 51.2411 14.6832 51.4542 14.5724C51.6673 14.4616 51.842 14.2969 51.9783 14.0781C52.1175 13.8565 52.1871 13.5795 52.1871 13.2472ZM55.3161 16V9.45455H56.7905V10.5668H56.8672C57.0036 10.1918 57.2294 9.89915 57.5447 9.68892C57.8601 9.47585 58.2365 9.36932 58.674 9.36932C59.1172 9.36932 59.4908 9.47727 59.7947 9.69318C60.1016 9.90625 60.3175 10.1974 60.4425 10.5668H60.5107C60.6555 10.2031 60.8999 9.91335 61.2436 9.69744C61.5902 9.47869 62.0007 9.36932 62.4751 9.36932C63.0774 9.36932 63.5689 9.55966 63.9496 9.94034C64.3303 10.321 64.5206 10.8764 64.5206 11.6065V16H62.9737V11.8452C62.9737 11.4389 62.8658 11.142 62.6499 10.9545C62.4339 10.7642 62.1697 10.669 61.8572 10.669C61.4851 10.669 61.1939 10.7855 60.9837 11.0185C60.7763 11.2486 60.6726 11.5483 60.6726 11.9176V16H59.1598V11.7812C59.1598 11.4432 59.0575 11.1733 58.853 10.9716C58.6513 10.7699 58.3871 10.669 58.0604 10.669C57.8388 10.669 57.6371 10.7259 57.4553 10.8395C57.2734 10.9503 57.1286 11.108 57.0206 11.3125C56.9126 11.5142 56.8587 11.75 56.8587 12.0199V16H55.3161Z" fill="#091118"/>
<defs>
<linearGradient id="paint0_linear_1032_121" x1="0" y1="12" x2="79" y2="12" gradientUnits="userSpaceOnUse">
<stop stop-color="#F0C346"/>
<stop offset="1" stop-color="#FFE293"/>
</linearGradient>
</defs>
</svg>
