<svg width="21" height="19" viewBox="0 0 21 19" fill="none" xmlns="http://www.w3.org/2000/svg">
<rect x="0.552429" width="19" height="19" rx="4" fill="#00DA4D"/>
<path d="M9.38885 5.38086C9.01385 5.38086 8.633 5.42188 8.24628 5.50391C7.86346 5.58203 7.46112 5.72852 7.03925 5.94336C6.62128 6.1582 6.25214 6.42969 5.93182 6.75781C5.61151 7.08594 5.34784 7.52344 5.14081 8.07031C4.93378 8.61328 4.83026 9.22852 4.83026 9.91602C4.83026 10.6035 4.93378 11.2207 5.14081 11.7676C5.34784 12.3105 5.61151 12.7441 5.93182 13.0684C6.25214 13.3887 6.62128 13.6562 7.03925 13.8711C7.46112 14.082 7.86346 14.2266 8.24628 14.3047C8.633 14.3867 9.01385 14.4277 9.38885 14.4277C9.9787 14.4277 10.508 14.3711 10.9767 14.2578C11.4455 14.1484 11.9767 13.9766 12.5705 13.7422C12.3947 13.2617 12.3068 12.6543 12.3068 11.9199V11.0527C12.3068 10.7676 12.9572 10.5801 14.258 10.4902C14.301 10.3965 14.301 10.3047 14.258 10.2148C13.2346 10.2461 12.4357 10.2617 11.8615 10.2617C11.381 10.2617 10.7014 10.2461 9.82245 10.2148C9.7951 10.3047 9.7951 10.3965 9.82245 10.4902C10.7248 10.5801 11.176 10.7676 11.176 11.0527V13.4316C10.84 13.8145 10.2443 14.0059 9.38885 14.0059C8.93182 14.0059 8.51581 13.9219 8.14081 13.7539C7.76581 13.5859 7.45526 13.3652 7.20917 13.0918C6.96698 12.8145 6.76385 12.4941 6.59979 12.1309C6.43573 11.7676 6.31659 11.4023 6.24237 11.0352C6.17206 10.6641 6.1369 10.291 6.1369 9.91602C6.1369 9.43555 6.1955 8.9668 6.31268 8.50977C6.43378 8.04883 6.61542 7.61133 6.8576 7.19727C7.1037 6.7793 7.44354 6.44141 7.87714 6.18359C8.31464 5.92578 8.81854 5.79688 9.38885 5.79688C9.77167 5.79688 10.1271 5.85742 10.4553 5.97852C10.7834 6.09961 11.0529 6.24219 11.2639 6.40625C11.4787 6.57031 11.6857 6.79102 11.8849 7.06836C12.0842 7.3418 12.2346 7.58008 12.3361 7.7832C12.4416 7.98242 12.5666 8.23633 12.7111 8.54492C12.8322 8.5293 12.9045 8.48633 12.9279 8.41602C12.6389 7.25586 12.2014 6.46094 11.6154 6.03125C11.0334 5.59766 10.2912 5.38086 9.38885 5.38086ZM12.5705 8.80859C12.4025 8.43359 12.2482 8.125 12.1076 7.88281C11.967 7.63672 11.7775 7.36328 11.5392 7.0625C11.3049 6.75781 11.0256 6.52148 10.7014 6.35352C10.3771 6.18555 10.0158 6.08398 9.61737 6.04883C9.16034 6.07617 8.758 6.21484 8.41034 6.46484C8.06268 6.71094 7.79315 7.02734 7.60175 7.41406C7.41034 7.80078 7.26776 8.20508 7.17401 8.62695C7.08026 9.04492 7.03339 9.47461 7.03339 9.91602C7.03339 10.5254 7.11542 11.1074 7.27948 11.6621C7.44354 12.2168 7.73065 12.707 8.14081 13.1328C8.55487 13.5547 9.06268 13.7656 9.66425 13.7656C10.2228 13.7656 10.6467 13.623 10.9357 13.3379V11.0527C10.9357 10.9199 10.5002 10.8086 9.62909 10.7188C9.52362 10.4453 9.53143 10.1934 9.65253 9.96289C10.8205 10.0176 12.4357 10.0293 14.4982 9.99805C14.5881 10.2324 14.592 10.4727 14.5099 10.7188C13.6389 10.8086 13.2033 10.9199 13.2033 11.0527V11.9199C13.2033 12.6309 13.3146 13.2871 13.5373 13.8887C12.9865 14.0957 12.5764 14.2383 12.3068 14.3164C12.0412 14.3984 11.6545 14.4766 11.1467 14.5508C10.6389 14.6289 10.0529 14.668 9.38885 14.668C8.98651 14.668 8.58417 14.625 8.18182 14.5391C7.77948 14.457 7.3576 14.3047 6.9162 14.082C6.47479 13.8555 6.08612 13.5723 5.75018 13.2324C5.41425 12.8926 5.1369 12.4375 4.91815 11.8672C4.6994 11.293 4.59003 10.6426 4.59003 9.91602C4.59003 9.18945 4.69745 8.54102 4.91229 7.9707C5.12714 7.39648 5.40057 6.9375 5.7326 6.59375C6.06464 6.25 6.44745 5.96484 6.88104 5.73828C7.31854 5.50781 7.73651 5.35156 8.13495 5.26953C8.53729 5.18359 8.93964 5.14062 9.34198 5.14062C9.99042 5.14062 10.7092 5.22266 11.4982 5.38672C12.2912 5.55078 12.7951 5.64453 13.0099 5.66797C12.8849 6.17188 12.8361 6.61523 12.8635 6.99805C12.8908 7.37695 13.0002 7.8418 13.1916 8.39258C13.0783 8.62305 12.8713 8.76172 12.5705 8.80859Z" fill="#001208"/>
<path fill-rule="evenodd" clip-rule="evenodd" d="M4.66022 9.76092L0.550756 11.7279L0.532658 10.5011L4.84184 8.21419L4.66022 9.76092Z" fill="#001208"/>
<path fill-rule="evenodd" clip-rule="evenodd" d="M19.5463 12.905L14.5224 9.99968L14.4498 10.9548L19.523 14.4996L19.5463 12.905Z" fill="#001208"/>
</svg>
