<svg width="14" height="13" viewBox="0 0 14 13" fill="none" xmlns="http://www.w3.org/2000/svg">
<path d="M10 11.6666H4" stroke="#FFD983" stroke-width="1.5" stroke-linecap="round"/>
<path d="M7.66666 10.3333C7.66666 10.5101 7.59642 10.6797 7.4714 10.8047C7.34638 10.9297 7.17681 11 6.99999 11C6.82318 11 6.65361 10.9297 6.52859 10.8047C6.40357 10.6797 6.33333 10.5101 6.33333 10.3333H7.66666ZM6.33333 10.3333V8.66663H7.66666V10.3333H6.33333Z" fill="#FFD983"/>
<path d="M5.99999 4.33325H7.99999M2.66666 7.66659C2.66666 7.66659 1.33333 6.66659 1.33333 4.99992V3.66659C1.33333 3.31296 1.4738 2.97382 1.72385 2.72378C1.9739 2.47373 2.31304 2.33325 2.66666 2.33325C3.02028 2.33325 3.35942 2.47373 3.60947 2.72378C3.85952 2.97382 3.99999 3.31296 3.99999 3.66659V4.33325M11.3333 7.66659C11.3333 7.66659 12.6667 6.66659 12.6667 4.99992V3.66659C12.6667 3.31296 12.5262 2.97382 12.2761 2.72378C12.0261 2.47373 11.6869 2.33325 11.3333 2.33325C10.9797 2.33325 10.6406 2.47373 10.3905 2.72378C10.1405 2.97382 9.99999 3.31296 9.99999 3.66659V4.33325" stroke="#FFD983" stroke-width="1.5" stroke-linecap="round"/>
<path d="M10 5.57329V2.99996C10 2.64634 9.85952 2.3072 9.60948 2.05715C9.35943 1.8071 9.02029 1.66663 8.66667 1.66663H5.33333C4.97971 1.66663 4.64057 1.8071 4.39052 2.05715C4.14048 2.3072 4 2.64634 4 2.99996V5.57329C4.00001 6.01227 4.10838 6.44445 4.31551 6.83148C4.52263 7.21852 4.8221 7.54844 5.18733 7.79196L6.63 8.75329C6.73955 8.82638 6.8683 8.86539 7 8.86539C7.1317 8.86539 7.26045 8.82638 7.37 8.75329L8.81267 7.79196C9.17799 7.54838 9.47752 7.21835 9.68465 6.83119C9.89178 6.44403 10.0001 6.01238 10 5.57329Z" stroke="#FFD983" stroke-width="1.5"/>
</svg>
