<svg width="32" height="32" viewBox="0 0 32 32" fill="none" xmlns="http://www.w3.org/2000/svg">
<g clip-path="url(#clip0_1039_137)">
<path d="M31.7031 22.7031L23 31.4219L18.7969 27.2031L20.2031 25.7969L23 28.5781L30.2969 21.2969L31.7031 22.7031ZM16 6V14H22V16H14V6H16ZM15 28C15.1667 28 15.3333 27.9948 15.5 27.9844C15.6667 27.974 15.8333 27.9635 16 27.9531L17.7812 29.7344C17.3125 29.8177 16.849 29.8802 16.3906 29.9219C15.9323 29.9635 15.4688 29.9896 15 30C13.625 30 12.3021 29.8229 11.0312 29.4688C9.76042 29.1146 8.5625 28.6094 7.4375 27.9531C6.3125 27.2969 5.30208 26.5156 4.40625 25.6094C3.51042 24.7031 2.72917 23.6875 2.0625 22.5625C1.39583 21.4375 0.890625 20.2448 0.546875 18.9844C0.203125 17.724 0.0208333 16.3958 0 15C0 13.625 0.177083 12.3021 0.53125 11.0312C0.885417 9.76042 1.39062 8.5625 2.04688 7.4375C2.70312 6.3125 3.48438 5.30208 4.39062 4.40625C5.29688 3.51042 6.3125 2.72917 7.4375 2.0625C8.5625 1.39583 9.75521 0.890625 11.0156 0.546875C12.276 0.203125 13.6042 0.0208333 15 0C16.375 0 17.6979 0.177083 18.9688 0.53125C20.2396 0.885417 21.4375 1.39062 22.5625 2.04688C23.6875 2.70312 24.6979 3.48438 25.5938 4.39062C26.4896 5.29688 27.2708 6.3125 27.9375 7.4375C28.6042 8.5625 29.1094 9.75521 29.4531 11.0156C29.7969 12.276 29.9792 13.6042 30 15C30 15.5208 29.9688 16.0469 29.9062 16.5781L27.2812 19.2188C27.7604 17.8333 28 16.4271 28 15C28 13.8021 27.8438 12.651 27.5312 11.5469C27.2188 10.4427 26.7812 9.41146 26.2188 8.45312C25.6562 7.49479 24.9792 6.61458 24.1875 5.8125C23.3958 5.01042 22.5208 4.33333 21.5625 3.78125C20.6042 3.22917 19.5677 2.79167 18.4531 2.46875C17.3385 2.14583 16.1875 1.98958 15 2C13.8021 2 12.651 2.15625 11.5469 2.46875C10.4427 2.78125 9.41146 3.21875 8.45312 3.78125C7.49479 4.34375 6.61458 5.02083 5.8125 5.8125C5.01042 6.60417 4.33333 7.47917 3.78125 8.4375C3.22917 9.39583 2.79167 10.4323 2.46875 11.5469C2.14583 12.6615 1.98958 13.8125 2 15C2 16.1979 2.15625 17.349 2.46875 18.4531C2.78125 19.5573 3.21875 20.5885 3.78125 21.5469C4.34375 22.5052 5.02083 23.3854 5.8125 24.1875C6.60417 24.9896 7.47917 25.6667 8.4375 26.2188C9.39583 26.7708 10.4323 27.2083 11.5469 27.5312C12.6615 27.8542 13.8125 28.0104 15 28Z" fill="url(#paint0_linear_1039_137)"/>
</g>
<defs>
<linearGradient id="paint0_linear_1039_137" x1="15.8516" y1="0" x2="15.8516" y2="31.4219" gradientUnits="userSpaceOnUse">
<stop stop-color="white"/>
<stop offset="1" stop-color="#0CF285"/>
</linearGradient>
<clipPath id="clip0_1039_137">
<rect width="32" height="32" fill="white"/>
</clipPath>
</defs>
</svg>
