<svg width="32" height="32" viewBox="0 0 32 32" fill="none" xmlns="http://www.w3.org/2000/svg">
<path d="M19.6713 13.3333C20.9593 13.3333 22.0047 14.3787 22.0047 15.6667V21.9987C22.0047 23.5903 21.3724 25.1168 20.2469 26.2423C19.1215 27.3677 17.595 28 16.0033 28C14.4117 28 12.8852 27.3677 11.7598 26.2423C10.6343 25.1168 10.002 23.5903 10.002 21.9987V15.6667C10.002 14.3787 11.046 13.3333 12.3353 13.3333H19.6713ZM19.6713 15.3333H12.3353C12.2469 15.3333 12.1622 15.3685 12.0996 15.431C12.0371 15.4935 12.002 15.5783 12.002 15.6667V21.9987C12.002 23.0599 12.4236 24.0776 13.174 24.828C13.9244 25.5784 14.9421 26 16.0033 26C17.0646 26 18.0823 25.5784 18.8327 24.828C19.5831 24.0776 20.0047 23.0599 20.0047 21.9987V15.6667C20.0047 15.5783 19.9696 15.4935 19.907 15.431C19.8445 15.3685 19.7598 15.3333 19.6713 15.3333ZM4.99935 13.3333H9.50735C9.03709 13.9015 8.74983 14.5988 8.68335 15.3333H4.99935C4.91094 15.3333 4.82616 15.3685 4.76365 15.431C4.70113 15.4935 4.66602 15.5783 4.66602 15.6667V19.9987C4.66568 20.5026 4.7796 21 4.99921 21.4536C5.21882 21.9072 5.53842 22.305 5.93395 22.6173C6.32948 22.9295 6.79067 23.148 7.28281 23.2563C7.77496 23.3647 8.28527 23.36 8.77535 23.2427C8.88868 23.9147 9.09535 24.556 9.37935 25.152C8.93846 25.272 8.47846 25.3324 7.99935 25.3333C7.29885 25.3333 6.60522 25.1953 5.95806 24.9272C5.31091 24.6591 4.7229 24.2662 4.22764 23.7708C3.73238 23.2754 3.33956 22.6873 3.07161 22.0401C2.80366 21.3928 2.66584 20.6992 2.66602 19.9987V15.6667C2.66602 14.3787 3.71135 13.3333 4.99935 13.3333ZM22.4993 13.3333H26.9993C28.2873 13.3333 29.3327 14.3787 29.3327 15.6667V20C29.3329 20.8176 29.1451 21.6242 28.7839 22.3576C28.4226 23.0911 27.8976 23.7316 27.2494 24.2298C26.6012 24.728 25.8471 25.0705 25.0455 25.2309C24.2438 25.3913 23.416 25.3652 22.626 25.1547C22.9113 24.5573 23.118 23.916 23.2327 23.244C23.4789 23.3027 23.7345 23.3324 23.9993 23.3333C24.8834 23.3333 25.7312 22.9821 26.3564 22.357C26.9815 21.7319 27.3327 20.8841 27.3327 20V15.6667C27.3327 15.5783 27.2976 15.4935 27.2351 15.431C27.1725 15.3685 27.0878 15.3333 26.9993 15.3333H23.3233C23.2569 14.5988 22.9696 13.9015 22.4993 13.3333ZM15.9993 4C17.0602 4 18.0776 4.42143 18.8278 5.17157C19.5779 5.92172 19.9993 6.93913 19.9993 8C19.9993 9.06087 19.5779 10.0783 18.8278 10.8284C18.0776 11.5786 17.0602 12 15.9993 12C14.9385 12 13.9211 11.5786 13.1709 10.8284C12.4208 10.0783 11.9993 9.06087 11.9993 8C11.9993 6.93913 12.4208 5.92172 13.1709 5.17157C13.9211 4.42143 14.9385 4 15.9993 4ZM24.666 5.33333C25.5501 5.33333 26.3979 5.68452 27.023 6.30964C27.6482 6.93477 27.9993 7.78261 27.9993 8.66667C27.9993 9.55072 27.6482 10.3986 27.023 11.0237C26.3979 11.6488 25.5501 12 24.666 12C23.782 12 22.9341 11.6488 22.309 11.0237C21.6839 10.3986 21.3327 9.55072 21.3327 8.66667C21.3327 7.78261 21.6839 6.93477 22.309 6.30964C22.9341 5.68452 23.782 5.33333 24.666 5.33333ZM7.33268 5.33333C8.21674 5.33333 9.06458 5.68452 9.6897 6.30964C10.3148 6.93477 10.666 7.78261 10.666 8.66667C10.666 9.55072 10.3148 10.3986 9.6897 11.0237C9.06458 11.6488 8.21674 12 7.33268 12C6.44863 12 5.60078 11.6488 4.97566 11.0237C4.35054 10.3986 3.99935 9.55072 3.99935 8.66667C3.99935 7.78261 4.35054 6.93477 4.97566 6.30964C5.60078 5.68452 6.44863 5.33333 7.33268 5.33333ZM15.9993 6C15.4689 6 14.9602 6.21071 14.5851 6.58579C14.2101 6.96086 13.9993 7.46957 13.9993 8C13.9993 8.53043 14.2101 9.03914 14.5851 9.41421C14.9602 9.78929 15.4689 10 15.9993 10C16.5298 10 17.0385 9.78929 17.4136 9.41421C17.7886 9.03914 17.9993 8.53043 17.9993 8C17.9993 7.46957 17.7886 6.96086 17.4136 6.58579C17.0385 6.21071 16.5298 6 15.9993 6ZM24.666 7.33333C24.3124 7.33333 23.9733 7.47381 23.7232 7.72386C23.4732 7.97391 23.3327 8.31305 23.3327 8.66667C23.3327 9.02029 23.4732 9.35943 23.7232 9.60948C23.9733 9.85952 24.3124 10 24.666 10C25.0196 10 25.3588 9.85952 25.6088 9.60948C25.8589 9.35943 25.9993 9.02029 25.9993 8.66667C25.9993 8.31305 25.8589 7.97391 25.6088 7.72386C25.3588 7.47381 25.0196 7.33333 24.666 7.33333ZM7.33268 7.33333C6.97906 7.33333 6.63992 7.47381 6.38987 7.72386C6.13983 7.97391 5.99935 8.31305 5.99935 8.66667C5.99935 9.02029 6.13983 9.35943 6.38987 9.60948C6.63992 9.85952 6.97906 10 7.33268 10C7.6863 10 8.02544 9.85952 8.27549 9.60948C8.52554 9.35943 8.66602 9.02029 8.66602 8.66667C8.66602 8.31305 8.52554 7.97391 8.27549 7.72386C8.02544 7.47381 7.6863 7.33333 7.33268 7.33333Z" fill="url(#paint0_linear_1039_116)"/>
<defs>
<linearGradient id="paint0_linear_1039_116" x1="15.9993" y1="4" x2="15.9993" y2="28" gradientUnits="userSpaceOnUse">
<stop stop-color="white"/>
<stop offset="1" stop-color="#0CF285"/>
</linearGradient>
</defs>
</svg>
