<svg width="32" height="32" viewBox="0 0 32 32" fill="none" xmlns="http://www.w3.org/2000/svg">
<path d="M27.2271 5.05422H23.578V3.37001C23.5782 3.14667 23.4896 2.93242 23.3318 2.77439C23.174 2.61636 22.9598 2.52749 22.7365 2.52734C22.5131 2.5272 22.2989 2.61577 22.1409 2.77359C21.9828 2.93141 21.894 3.14555 21.8938 3.36889V5.05422H16.8412V3.37001C16.8413 3.25942 16.8195 3.14991 16.7773 3.04771C16.735 2.94551 16.6731 2.85264 16.5949 2.77439C16.5168 2.69614 16.424 2.63405 16.3219 2.59166C16.2197 2.54927 16.1102 2.52742 15.9996 2.52734C15.7763 2.5272 15.562 2.61577 15.404 2.77359C15.246 2.93141 15.1571 3.14555 15.157 3.36889V5.05422H10.1043V3.37001C10.1044 3.25942 10.0827 3.14991 10.0405 3.04771C9.9982 2.94551 9.93623 2.85264 9.85809 2.77439C9.77994 2.69614 9.68715 2.63405 9.58501 2.59166C9.48287 2.54927 9.37338 2.52742 9.26279 2.52734C9.03945 2.5272 8.8252 2.61577 8.66717 2.77359C8.50914 2.93141 8.42028 3.14555 8.42013 3.36889V5.05422H4.771C4.17563 5.05422 3.60461 5.29066 3.18351 5.71155C2.76241 6.13244 2.52569 6.70333 2.52539 7.29871V27.2285C2.52539 27.8241 2.76198 28.3953 3.18312 28.8164C3.60425 29.2376 4.17543 29.4742 4.771 29.4742H27.2271C27.8227 29.4742 28.3939 29.2376 28.815 28.8164C29.2362 28.3953 29.4728 27.8241 29.4728 27.2285V7.29871C29.4725 6.70333 29.2357 6.13244 28.8146 5.71155C28.3935 5.29066 27.8225 5.05422 27.2271 5.05422ZM27.7885 27.2297C27.7885 27.3784 27.7296 27.521 27.6245 27.6262C27.5195 27.7315 27.377 27.7908 27.2283 27.7911H4.771C4.62211 27.7911 4.47932 27.7319 4.37403 27.6266C4.26875 27.5213 4.2096 27.3786 4.2096 27.2297V7.29984C4.2099 7.15114 4.26918 7.00863 4.37443 6.90359C4.47968 6.79855 4.62231 6.73955 4.771 6.73955H8.42013V8.42377C8.41998 8.64711 8.50856 8.86136 8.66638 9.01939C8.8242 9.17742 9.03833 9.26628 9.26167 9.26643C9.48501 9.26658 9.69926 9.178 9.85729 9.02018C10.0153 8.86236 10.1042 8.64823 10.1043 8.42489V6.73955H15.157V8.42377C15.1568 8.64711 15.2454 8.86136 15.4032 9.01939C15.561 9.17742 15.7752 9.26628 15.9985 9.26643C16.2219 9.26658 16.4361 9.178 16.5941 9.02018C16.7522 8.86236 16.841 8.64823 16.8412 8.42489V6.73955H21.8938V8.42377C21.8937 8.64711 21.9822 8.86136 22.1401 9.01939C22.2979 9.17742 22.512 9.26628 22.7354 9.26643C22.9587 9.26658 23.1729 9.178 23.331 9.02018C23.489 8.86236 23.5779 8.64823 23.578 8.42489V6.73955H27.2271C27.3757 6.73985 27.518 6.79898 27.623 6.90398C27.728 7.00899 27.7871 7.15133 27.7874 7.29984L27.7885 27.2297Z" fill="url(#paint0_linear_1039_130)"/>
<path d="M8.42188 12.6328H11.7903V15.1591H8.42188V12.6328ZM8.42188 16.8433H11.7903V19.3697H8.42188V16.8433ZM8.42188 21.0539H11.7903V23.5802H8.42188V21.0539ZM14.3166 21.0539H17.685V23.5802H14.3166V21.0539ZM14.3166 16.8433H17.685V19.3697H14.3166V16.8433ZM14.3166 12.6328H17.685V15.1591H14.3166V12.6328ZM20.2113 21.0539H23.5798V23.5802H20.2113V21.0539ZM20.2113 16.8433H23.5798V19.3697H20.2113V16.8433ZM20.2113 12.6328H23.5798V15.1591H20.2113V12.6328Z" fill="url(#paint1_linear_1039_130)"/>
<defs>
<linearGradient id="paint0_linear_1039_130" x1="15.9991" y1="2.52734" x2="15.9991" y2="29.4742" gradientUnits="userSpaceOnUse">
<stop stop-color="white"/>
<stop offset="1" stop-color="#0CF285"/>
</linearGradient>
<linearGradient id="paint1_linear_1039_130" x1="16.0008" y1="12.6328" x2="16.0008" y2="23.5802" gradientUnits="userSpaceOnUse">
<stop stop-color="white"/>
<stop offset="1" stop-color="#0CF285"/>
</linearGradient>
</defs>
</svg>
