<svg width="32" height="32" viewBox="0 0 32 32" fill="none" xmlns="http://www.w3.org/2000/svg">
<path d="M7.99935 16.0013C7.99935 16.7085 7.7184 17.3868 7.2183 17.8869C6.7182 18.387 6.03993 18.668 5.33268 18.668C4.62544 18.668 3.94716 18.387 3.44706 17.8869C2.94697 17.3868 2.66602 16.7085 2.66602 16.0013C2.66602 15.2941 2.94697 14.6158 3.44706 14.1157C3.94716 13.6156 4.62544 13.3346 5.33268 13.3346C6.03993 13.3346 6.7182 13.6156 7.2183 14.1157C7.7184 14.6158 7.99935 15.2941 7.99935 16.0013ZM7.99935 16.0013H11.9993C12.353 16.0013 12.6921 16.1418 12.9422 16.3918C13.1922 16.6419 13.3327 16.981 13.3327 17.3346V25.3346C13.3327 25.6883 13.1922 26.0274 12.9422 26.2774C12.6921 26.5275 12.353 26.668 11.9993 26.668H7.99935M7.99935 26.668C7.99935 27.3752 7.7184 28.0535 7.2183 28.5536C6.7182 29.0537 6.03993 29.3346 5.33268 29.3346C4.62544 29.3346 3.94716 29.0537 3.44706 28.5536C2.94697 28.0535 2.66602 27.3752 2.66602 26.668C2.66602 25.9607 2.94697 25.2824 3.44706 24.7823C3.94716 24.2823 4.62544 24.0013 5.33268 24.0013C6.03993 24.0013 6.7182 24.2823 7.2183 24.7823C7.7184 25.2824 7.99935 25.9607 7.99935 26.668ZM2.66602 5.33464C2.66602 6.04188 2.94697 6.72016 3.44706 7.22025C3.94716 7.72035 4.62544 8.0013 5.33268 8.0013C6.03993 8.0013 6.7182 7.72035 7.2183 7.22025C7.7184 6.72016 7.99935 6.04188 7.99935 5.33464C7.99935 4.62739 7.7184 3.94911 7.2183 3.44902C6.7182 2.94892 6.03993 2.66797 5.33268 2.66797C4.62544 2.66797 3.94716 2.94892 3.44706 3.44902C2.94697 3.94911 2.66602 4.62739 2.66602 5.33464ZM23.9993 13.3346C23.9993 14.0419 24.2803 14.7202 24.7804 15.2203C25.2805 15.7203 25.9588 16.0013 26.666 16.0013C27.3733 16.0013 28.0515 15.7203 28.5516 15.2203C29.0517 14.7202 29.3327 14.0419 29.3327 13.3346C29.3327 12.6274 29.0517 11.9491 28.5516 11.449C28.0515 10.9489 27.3733 10.668 26.666 10.668C25.9588 10.668 25.2805 10.9489 24.7804 11.449C24.2803 11.9491 23.9993 12.6274 23.9993 13.3346Z" stroke="url(#paint0_linear_1039_122)" stroke-width="2" stroke-linecap="round" stroke-linejoin="round"/>
<path d="M8 5.33594H17.3333C17.687 5.33594 18.0261 5.47641 18.2761 5.72646C18.5262 5.97651 18.6667 6.31565 18.6667 6.66927V20.0026C18.6667 20.3562 18.5262 20.6954 18.2761 20.9454C18.0261 21.1955 17.687 21.3359 17.3333 21.3359H14.6667M18.6667 13.3359H24" stroke="url(#paint1_linear_1039_122)" stroke-width="2" stroke-linecap="round" stroke-linejoin="round"/>
<defs>
<linearGradient id="paint0_linear_1039_122" x1="15.9993" y1="2.66797" x2="15.9993" y2="29.3346" gradientUnits="userSpaceOnUse">
<stop stop-color="white"/>
<stop offset="1" stop-color="#0CF285"/>
</linearGradient>
<linearGradient id="paint1_linear_1039_122" x1="16" y1="5.33594" x2="16" y2="21.3359" gradientUnits="userSpaceOnUse">
<stop stop-color="white"/>
<stop offset="1" stop-color="#0CF285"/>
</linearGradient>
</defs>
</svg>
