<svg width="16" height="16" viewBox="0 0 16 16" fill="none" xmlns="http://www.w3.org/2000/svg">
<path d="M12.7005 3.27207C12.0893 2.65469 11.3613 2.16518 10.5589 1.8321C9.75658 1.49903 8.89593 1.32904 8.02719 1.33207C4.38719 1.33207 1.42052 4.29874 1.42052 7.93874C1.42052 9.1054 1.72719 10.2387 2.30052 11.2387L1.36719 14.6654L4.86719 13.7454C5.83385 14.2721 6.92052 14.5521 8.02719 14.5521C11.6672 14.5521 14.6339 11.5854 14.6339 7.9454C14.6339 6.17874 13.9472 4.51874 12.7005 3.27207ZM8.02719 13.4321C7.04052 13.4321 6.07385 13.1654 5.22719 12.6654L5.02719 12.5454L2.94719 13.0921L3.50052 11.0654L3.36719 10.8587C2.81902 9.98338 2.52795 8.97157 2.52719 7.93874C2.52719 4.91207 4.99385 2.4454 8.02052 2.4454C9.48719 2.4454 10.8672 3.01874 11.9005 4.05874C12.4122 4.56805 12.8177 5.17385 13.0934 5.84102C13.3692 6.5082 13.5099 7.22348 13.5072 7.9454C13.5205 10.9721 11.0539 13.4321 8.02719 13.4321ZM11.0405 9.3254C10.8739 9.2454 10.0605 8.8454 9.91385 8.7854C9.76052 8.73207 9.65385 8.7054 9.54052 8.8654C9.42719 9.03207 9.11385 9.4054 9.02052 9.51207C8.92719 9.6254 8.82719 9.63874 8.66052 9.55207C8.49385 9.47207 7.96052 9.29207 7.33385 8.73207C6.84052 8.29207 6.51385 7.75207 6.41385 7.5854C6.32052 7.41874 6.40052 7.33207 6.48719 7.2454C6.56052 7.17207 6.65385 7.05207 6.73385 6.95874C6.81385 6.8654 6.84719 6.79207 6.90052 6.6854C6.95385 6.57207 6.92719 6.47874 6.88719 6.39874C6.84719 6.31874 6.51385 5.5054 6.38052 5.17207C6.24719 4.85207 6.10719 4.89207 6.00719 4.8854H5.68719C5.57385 4.8854 5.40052 4.9254 5.24719 5.09207C5.10052 5.25874 4.67385 5.65874 4.67385 6.47207C4.67385 7.2854 5.26719 8.07207 5.34719 8.17874C5.42719 8.29207 6.51385 9.95874 8.16719 10.6721C8.56052 10.8454 8.86719 10.9454 9.10719 11.0187C9.50052 11.1454 9.86052 11.1254 10.1472 11.0854C10.4672 11.0387 11.1272 10.6854 11.2605 10.2987C11.4005 9.91207 11.4005 9.5854 11.3539 9.51207C11.3072 9.43874 11.2072 9.4054 11.0405 9.3254Z" fill="#D1D4D2"/>
</svg>
